<svg width="170" height="14" viewBox="0 0 170 14" fill="none" xmlns="http://www.w3.org/2000/svg">
<path d="M154.642 13.2999C153.708 13.2999 152.893 13.1147 152.198 12.7442C151.503 12.3738 150.951 11.8659 150.541 11.2207C150.142 10.5634 149.908 9.80463 149.84 8.94426L151.378 8.83671C151.458 9.47004 151.634 10.0078 151.908 10.4499C152.181 10.892 152.546 11.2266 153.001 11.4537C153.469 11.6807 154.027 11.7942 154.676 11.7942C155.246 11.7942 155.73 11.7166 156.129 11.5612C156.528 11.4059 156.83 11.1788 157.035 10.8801C157.251 10.5813 157.359 10.2169 157.359 9.7867C157.359 9.39237 157.268 9.04583 157.086 8.74709C156.915 8.4364 156.579 8.15559 156.078 7.90464C155.588 7.64175 154.859 7.38484 153.89 7.1339C152.956 6.88296 152.21 6.60812 151.651 6.30938C151.104 6.01064 150.706 5.64617 150.455 5.21599C150.216 4.7858 150.096 4.25405 150.096 3.62072C150.096 2.90375 150.256 2.27639 150.575 1.73866C150.905 1.18898 151.372 0.764773 151.976 0.466033C152.58 0.155344 153.298 0 154.129 0C155.018 0 155.781 0.179243 156.419 0.53773C157.057 0.884268 157.564 1.36225 157.94 1.97168C158.316 2.58111 158.55 3.27418 158.641 4.05091L157.103 4.15845C157.035 3.64462 156.875 3.19054 156.625 2.7962C156.385 2.38991 156.055 2.07325 155.633 1.84621C155.212 1.61917 154.699 1.50565 154.095 1.50565C153.343 1.50565 152.745 1.69684 152.301 2.07923C151.856 2.44966 151.634 2.9396 151.634 3.54902C151.634 3.94336 151.72 4.27197 151.891 4.53486C152.073 4.7858 152.392 5.01285 152.848 5.21599C153.303 5.40718 153.958 5.6163 154.813 5.84334C155.827 6.10623 156.63 6.4229 157.223 6.79333C157.826 7.15182 158.254 7.57006 158.504 8.04804C158.766 8.52602 158.897 9.06973 158.897 9.67916C158.897 10.42 158.715 11.0653 158.351 11.615C157.986 12.1527 157.485 12.571 156.847 12.8697C156.209 13.1565 155.474 13.2999 154.642 13.2999Z" fill="#1D231C"/>
<path d="M138.918 13.0132V0.286865H141.003L147.001 11.4717V0.286865H148.471V13.0132H146.284L140.388 2.04345V13.0132H138.918Z" fill="#1D231C"/>
<path d="M131.994 13.2999C130.843 13.2999 129.852 13.037 129.021 12.5112C128.2 11.9735 127.568 11.2087 127.124 10.2169C126.679 9.22507 126.457 8.04206 126.457 6.66786C126.457 5.29366 126.679 4.11065 127.124 3.11884C127.568 2.11507 128.2 1.34433 129.021 0.806596C129.852 0.268865 130.843 0 131.994 0C133.156 0 134.147 0.268865 134.968 0.806596C135.799 1.34433 136.437 2.11507 136.882 3.11884C137.326 4.11065 137.548 5.29366 137.548 6.66786C137.548 8.04206 137.326 9.22507 136.882 10.2169C136.437 11.2087 135.799 11.9735 134.968 12.5112C134.147 13.037 133.156 13.2999 131.994 13.2999ZM131.994 11.7942C132.837 11.7942 133.555 11.5911 134.147 11.1848C134.751 10.7785 135.213 10.193 135.532 9.42822C135.851 8.66344 136.01 7.74332 136.01 6.66786C136.01 5.5924 135.851 4.67228 135.532 3.90751C135.213 3.13079 134.751 2.53928 134.147 2.133C133.555 1.71476 132.837 1.50565 131.994 1.50565C131.162 1.50565 130.445 1.71476 129.841 2.133C129.248 2.53928 128.793 3.13079 128.474 3.90751C128.155 4.67228 127.995 5.5924 127.995 6.66786C127.995 7.74332 128.155 8.66344 128.474 9.42822C128.793 10.193 129.248 10.7785 129.841 11.1848C130.445 11.5911 131.162 11.7942 131.994 11.7942Z" fill="#1D231C"/>
<path d="M123.662 13.0132V0.286865H125.132V13.0132H123.662Z" fill="#1D231C"/>
<path d="M117.242 13.0132V1.79251H113.465V0.286865H122.488V1.79251H118.711V13.0132H117.242Z" fill="#1D231C"/>
<path d="M107.715 13.2998C106.781 13.2998 105.966 13.1086 105.271 12.7262C104.587 12.3438 104.058 11.8001 103.682 11.0951C103.317 10.3781 103.135 9.5357 103.135 8.56778V0.268799H104.604V8.56778C104.604 9.59544 104.872 10.3901 105.408 10.9517C105.955 11.5134 106.724 11.7942 107.715 11.7942C108.695 11.7942 109.452 11.5134 109.988 10.9517C110.535 10.3901 110.808 9.59544 110.808 8.56778V0.268799H112.278V8.56778C112.278 9.5357 112.09 10.3781 111.714 11.0951C111.349 11.8001 110.825 12.3438 110.142 12.7262C109.458 13.1086 108.649 13.2998 107.715 13.2998Z" fill="#1D231C"/>
<path d="M95.0664 13.0132V0.286865H96.5361V12.2962L95.8013 11.5075H102.603V13.0132H95.0664Z" fill="#1D231C"/>
<path d="M88.3262 13.2999C87.1755 13.2999 86.1842 13.037 85.3525 12.5112C84.5322 11.9735 83.8999 11.2087 83.4556 10.2169C83.0112 9.22507 82.7891 8.04206 82.7891 6.66786C82.7891 5.29366 83.0112 4.11065 83.4556 3.11884C83.8999 2.11507 84.5322 1.34433 85.3525 0.806596C86.1842 0.268865 87.1755 0 88.3262 0C89.4883 0 90.4795 0.268865 91.2998 0.806596C92.1315 1.34433 92.7695 2.11507 93.2138 3.11884C93.6582 4.11065 93.8804 5.29366 93.8804 6.66786C93.8804 8.04206 93.6582 9.22507 93.2138 10.2169C92.7695 11.2087 92.1315 11.9735 91.2998 12.5112C90.4795 13.037 89.4883 13.2999 88.3262 13.2999ZM88.3262 11.7942C89.1693 11.7942 89.887 11.5911 90.4795 11.1848C91.0833 10.7785 91.5447 10.193 91.8638 9.42822C92.1828 8.66344 92.3423 7.74332 92.3423 6.66786C92.3423 5.5924 92.1828 4.67228 91.8638 3.90751C91.5447 3.13079 91.0833 2.53928 90.4795 2.133C89.887 1.71476 89.1693 1.50565 88.3262 1.50565C87.4945 1.50565 86.7767 1.71476 86.1728 2.133C85.5804 2.53928 85.1247 3.13079 84.8057 3.90751C84.4867 4.67228 84.3271 5.5924 84.3271 6.66786C84.3271 7.74332 84.4867 8.66344 84.8057 9.42822C85.1247 10.193 85.5804 10.7785 86.1728 11.1848C86.7767 11.5911 87.4945 11.7942 88.3262 11.7942Z" fill="#1D231C"/>
<path d="M77.7046 13.2999C76.7703 13.2999 75.9557 13.1147 75.2607 12.7442C74.5658 12.3738 74.0132 11.8659 73.603 11.2207C73.2043 10.5634 72.9707 9.80463 72.9023 8.94426L74.4404 8.83671C74.5202 9.47004 74.6968 10.0078 74.9702 10.4499C75.2436 10.892 75.6082 11.2266 76.064 11.4537C76.5311 11.6807 77.0894 11.7942 77.7388 11.7942C78.3084 11.7942 78.7926 11.7166 79.1914 11.5612C79.5902 11.4059 79.8921 11.1788 80.0972 10.8801C80.3136 10.5813 80.4219 10.2169 80.4219 9.7867C80.4219 9.39237 80.3307 9.04583 80.1484 8.74709C79.9775 8.4364 79.6414 8.15559 79.1401 7.90464C78.6502 7.64175 77.9211 7.38484 76.9526 7.1339C76.0184 6.88296 75.2721 6.60812 74.7139 6.30938C74.167 6.01064 73.7682 5.64617 73.5176 5.21599C73.2783 4.7858 73.1587 4.25405 73.1587 3.62072C73.1587 2.90375 73.3182 2.27639 73.6372 1.73866C73.9676 1.18898 74.4347 0.764773 75.0386 0.466033C75.6424 0.155344 76.3602 0 77.1919 0C78.0806 0 78.8439 0.179243 79.4819 0.53773C80.1199 0.884268 80.6269 1.36225 81.0029 1.97168C81.3789 2.58111 81.6125 3.27418 81.7036 4.05091L80.1655 4.15845C80.0972 3.64462 79.9377 3.19054 79.687 2.7962C79.4477 2.38991 79.1173 2.07325 78.6958 1.84621C78.2742 1.61917 77.7615 1.50565 77.1577 1.50565C76.4058 1.50565 75.8076 1.69684 75.3633 2.07923C74.9189 2.44966 74.6968 2.9396 74.6968 3.54902C74.6968 3.94336 74.7822 4.27197 74.9531 4.53486C75.1354 4.7858 75.4544 5.01285 75.9102 5.21599C76.3659 5.40718 77.021 5.6163 77.8755 5.84334C78.8895 6.10623 79.6927 6.4229 80.2852 6.79333C80.889 7.15182 81.3162 7.57006 81.5669 8.04804C81.8289 8.52602 81.96 9.06973 81.96 9.67916C81.96 10.42 81.7777 11.0653 81.4131 11.615C81.0485 12.1527 80.5472 12.571 79.9092 12.8697C79.2712 13.1565 78.5363 13.2999 77.7046 13.2999Z" fill="#1D231C"/>
<path d="M52.4004 13.0132V0.286865H56.8096L59.373 8.37075L61.9365 0.286865H66.3457V13.0132H62.9961V5.84342L60.5522 12.9594H58.1768L55.75 5.84342V13.0132H52.4004Z" fill="#1D231C"/>
<path d="M47.2559 13.0132V0.286865H50.6055V13.0132H47.2559Z" fill="#1D231C"/>
<path d="M35.748 13.0132V0.286865H40.8408C42.3903 0.286865 43.5866 0.56768 44.4297 1.12931C45.2842 1.67899 45.7114 2.55728 45.7114 3.76419C45.7114 4.27802 45.6146 4.72016 45.4209 5.0906C45.2386 5.46103 44.9595 5.75977 44.5835 5.98681C44.2075 6.20191 43.7461 6.3453 43.1992 6.417V6.45285C44.2132 6.56039 44.9709 6.87706 45.4722 7.40284C45.9735 7.91667 46.2241 8.61572 46.2241 9.49999C46.2241 10.6949 45.8026 11.5792 44.9595 12.1528C44.1164 12.7264 42.9144 13.0132 41.3535 13.0132H35.748ZM39.0977 10.3245H41.1313C41.6213 10.3245 42.0314 10.2229 42.3618 10.0198C42.7036 9.8047 42.8745 9.47012 42.8745 9.01603C42.8745 8.56195 42.7093 8.22736 42.3789 8.01227C42.0485 7.79717 41.6326 7.68963 41.1313 7.68963H39.0977V10.3245ZM39.0977 5.39531H40.7041C41.1826 5.39531 41.5757 5.29971 41.8833 5.10852C42.2023 4.90538 42.3618 4.60066 42.3618 4.19438C42.3618 3.76419 42.208 3.4535 41.9004 3.26231C41.5928 3.07112 41.194 2.97552 40.7041 2.97552H39.0977V5.39531Z" fill="#1D231C"/>
<path d="M23.7603 13.0132V3.10099H20.2227V0.286865H30.6645V3.10099H27.1269V13.0132H23.7603Z" fill="#1D231C"/>
<path d="M11.4004 13.0132V0.286865H20.3896V3.10099H14.75V5.23399H20.1846V8.03019H14.75V10.199H20.5264V13.0132H11.4004Z" fill="#1D231C"/>
<path d="M4.83642 13.3C3.76546 13.3 2.87109 13.0789 2.15332 12.6368C1.44694 12.1946 0.911458 11.5912 0.546875 10.8264C0.193685 10.0616 0.0113932 9.19527 0 8.22736L3.34961 8.08396C3.37239 8.94433 3.50911 9.55974 3.75976 9.93017C4.02181 10.3006 4.38069 10.4858 4.83642 10.4858C5.28076 10.4858 5.62825 10.3245 5.8789 10.0019C6.14095 9.66728 6.27197 9.1176 6.27197 8.35283V0.286865H9.62157V8.35283C9.62157 9.35659 9.4165 10.2289 9.00634 10.9698C8.60758 11.7107 8.04931 12.2842 7.33154 12.6905C6.61376 13.0968 5.78206 13.3 4.83642 13.3Z" fill="#1D231C"/>
<path d="M161.715 5.00832V1.13806H160.371V0.286865H164.036V1.13806H162.685V5.00832H161.715Z" fill="#1D231C"/>
<path d="M164.639 5.00832V0.286865H165.926L167.073 3.72488L168.215 0.286865H169.502V5.00832H168.538V1.94935L167.479 4.99502H166.655L165.602 1.94935V5.00832H164.639Z" fill="#1D231C"/>
</svg>
